<svg width="244" height="227" viewBox="0 0 244 227" fill="none" xmlns="http://www.w3.org/2000/svg">
<path d="M243.206 117.5C243.206 100.703 238.871 84.1893 230.619 69.556C222.367 54.9226 210.478 42.664 196.1 33.965C181.723 25.266 165.343 20.4207 148.544 19.8974C131.745 19.3741 115.095 23.1905 100.203 30.9777L114.224 57.7584C124.506 52.3815 136.002 49.7464 147.602 50.1077C159.201 50.469 170.511 53.8146 180.438 59.8211C190.366 65.8275 198.575 74.2918 204.273 84.3958C209.97 94.4998 212.964 105.902 212.964 117.5H243.206Z" fill="#E6ADE0" stroke="white"/>
<path d="M100.203 30.9777C85.2394 38.8024 72.5606 50.3697 63.4035 64.5513C54.2463 78.7329 48.9234 95.0445 47.9541 111.895C46.9847 128.745 50.402 145.559 57.8725 160.696C65.343 175.833 76.6117 188.777 90.5794 198.264L107.578 173.265C97.9342 166.715 90.1534 157.778 84.9952 147.326C79.837 136.874 77.4774 125.265 78.1467 113.63C78.8161 101.995 82.4914 90.7322 88.8142 80.9402C95.137 71.1481 103.891 63.1612 114.223 57.7584L100.203 30.9777Z" fill="#F8C283" stroke="white"/>
<path d="M90.5801 198.264C105.268 208.24 122.399 214.027 140.13 215.002C157.862 215.978 175.525 212.105 191.22 203.8C206.914 195.495 220.047 183.072 229.207 167.867C238.367 152.661 243.207 135.248 243.207 117.5H212.964C212.964 129.755 209.622 141.778 203.298 152.277C196.973 162.776 187.905 171.354 177.068 177.088C166.232 182.822 154.036 185.497 141.793 184.823C129.549 184.15 117.721 180.154 107.579 173.265L90.5801 198.264Z" fill="#53C7EC" stroke="white"/>
<path d="M196.101 33.965L208.148 14.0757" stroke="#7749C7"/>
<path d="M214.031 4.82104C214.031 5.24683 213.918 5.62573 213.691 5.95776C213.469 6.28979 213.166 6.54956 212.783 6.73706C213.229 6.92847 213.58 7.20776 213.838 7.57495C214.1 7.94214 214.23 8.35815 214.23 8.823C214.23 9.56128 213.98 10.1492 213.48 10.5867C212.984 11.0242 212.33 11.2429 211.518 11.2429C210.697 11.2429 210.039 11.0242 209.543 10.5867C209.051 10.1453 208.805 9.55737 208.805 8.823C208.805 8.36206 208.93 7.94604 209.18 7.57495C209.434 7.20386 209.783 6.92261 210.229 6.7312C209.85 6.5437 209.551 6.28394 209.332 5.9519C209.113 5.61987 209.004 5.24292 209.004 4.82104C209.004 4.10229 209.234 3.53198 209.695 3.11011C210.156 2.68823 210.764 2.47729 211.518 2.47729C212.268 2.47729 212.873 2.68823 213.334 3.11011C213.799 3.53198 214.031 4.10229 214.031 4.82104ZM213.146 8.79956C213.146 8.323 212.994 7.93433 212.689 7.63354C212.389 7.33276 211.994 7.18237 211.506 7.18237C211.018 7.18237 210.625 7.33081 210.328 7.62769C210.035 7.92456 209.889 8.31519 209.889 8.79956C209.889 9.28394 210.031 9.66479 210.316 9.94214C210.605 10.2195 211.006 10.3582 211.518 10.3582C212.025 10.3582 212.424 10.2195 212.713 9.94214C213.002 9.66089 213.146 9.28003 213.146 8.79956ZM211.518 3.36792C211.092 3.36792 210.746 3.50073 210.48 3.76636C210.219 4.02808 210.088 4.3855 210.088 4.83862C210.088 5.27222 210.217 5.62378 210.475 5.89331C210.736 6.15894 211.084 6.29175 211.518 6.29175C211.951 6.29175 212.297 6.15894 212.555 5.89331C212.816 5.62378 212.947 5.27222 212.947 4.83862C212.947 4.40503 212.812 4.05151 212.543 3.77808C212.273 3.50464 211.932 3.36792 211.518 3.36792ZM220.172 8.2605H221.355V9.14526H220.172V11.1257H219.082V9.14526H215.197V8.50659L219.018 2.59448H220.172V8.2605ZM216.428 8.2605H219.082V4.0769L218.953 4.31128L216.428 8.2605ZM227.684 7.48706C227.684 8.75659 227.467 9.69995 227.033 10.3171C226.6 10.9343 225.922 11.2429 225 11.2429C224.09 11.2429 223.416 10.9421 222.979 10.3406C222.541 9.73511 222.314 8.83276 222.299 7.63354V6.18628C222.299 4.93237 222.516 4.00073 222.949 3.39136C223.383 2.78198 224.062 2.47729 224.988 2.47729C225.906 2.47729 226.582 2.77222 227.016 3.36206C227.449 3.948 227.672 4.85425 227.684 6.08081V7.48706ZM226.6 6.00464C226.6 5.08667 226.471 4.4187 226.213 4.00073C225.955 3.57886 225.547 3.36792 224.988 3.36792C224.434 3.36792 224.029 3.5769 223.775 3.99487C223.521 4.41284 223.391 5.05542 223.383 5.92261V7.65698C223.383 8.57886 223.516 9.2605 223.781 9.7019C224.051 10.1394 224.457 10.3582 225 10.3582C225.535 10.3582 225.932 10.1511 226.189 9.73706C226.451 9.323 226.588 8.67065 226.6 7.78003V6.00464Z" fill="#7749C7"/>
<path d="M47.9546 111.895L24.7295 110.56" stroke="#7749C7"/>
<path d="M10.3973 101.306C10.3973 101.731 10.2841 102.11 10.0575 102.442C9.83484 102.774 9.5321 103.034 9.14929 103.222C9.5946 103.413 9.94617 103.692 10.204 104.06C10.4657 104.427 10.5966 104.843 10.5966 105.308C10.5966 106.046 10.3466 106.634 9.84656 107.071C9.35046 107.509 8.69617 107.728 7.88367 107.728C7.06335 107.728 6.40515 107.509 5.90906 107.071C5.41687 106.63 5.17078 106.042 5.17078 105.308C5.17078 104.847 5.29578 104.431 5.54578 104.06C5.79968 103.688 6.14929 103.407 6.5946 103.216C6.2157 103.028 5.91687 102.769 5.69812 102.437C5.47937 102.104 5.37 101.728 5.37 101.306C5.37 100.587 5.60046 100.017 6.0614 99.5947C6.52234 99.1729 7.12976 98.9619 7.88367 98.9619C8.63367 98.9619 9.23914 99.1729 9.70007 99.5947C10.1649 100.017 10.3973 100.587 10.3973 101.306ZM9.51257 105.284C9.51257 104.808 9.36023 104.419 9.05554 104.118C8.75476 103.817 8.36023 103.667 7.87195 103.667C7.38367 103.667 6.99109 103.815 6.69421 104.112C6.40125 104.409 6.25476 104.8 6.25476 105.284C6.25476 105.769 6.39734 106.149 6.6825 106.427C6.97156 106.704 7.37195 106.843 7.88367 106.843C8.39148 106.843 8.78992 106.704 9.07898 106.427C9.36804 106.146 9.51257 105.765 9.51257 105.284ZM7.88367 99.8525C7.45789 99.8525 7.11218 99.9854 6.84656 100.251C6.58484 100.513 6.45398 100.87 6.45398 101.323C6.45398 101.757 6.58289 102.108 6.8407 102.378C7.10242 102.644 7.45007 102.776 7.88367 102.776C8.31726 102.776 8.66296 102.644 8.92078 102.378C9.1825 102.108 9.31335 101.757 9.31335 101.323C9.31335 100.89 9.17859 100.536 8.90906 100.263C8.63953 99.9893 8.29773 99.8525 7.88367 99.8525ZM16.538 104.745H17.7216V105.63H16.538V107.61H15.4481V105.63H11.5634V104.991L15.3837 99.0791H16.538V104.745ZM12.7938 104.745H15.4481V100.562L15.3192 100.796L12.7938 104.745ZM23.2762 104.745H24.4598V105.63H23.2762V107.61H22.1864V105.63H18.3016V104.991L22.1219 99.0791H23.2762V104.745ZM19.5321 104.745H22.1864V100.562L22.0575 100.796L19.5321 104.745Z" fill="#7749C7"/>
<path d="M191.219 203.8L202.104 224.348" stroke="#7749C7"/>
<path d="M207.987 215.093C207.987 215.519 207.874 215.898 207.647 216.23C207.425 216.562 207.122 216.821 206.739 217.009C207.185 217.2 207.536 217.48 207.794 217.847C208.056 218.214 208.187 218.63 208.187 219.095C208.187 219.833 207.937 220.421 207.437 220.859C206.94 221.296 206.286 221.515 205.474 221.515C204.653 221.515 203.995 221.296 203.499 220.859C203.007 220.417 202.761 219.829 202.761 219.095C202.761 218.634 202.886 218.218 203.136 217.847C203.39 217.476 203.739 217.194 204.185 217.003C203.806 216.816 203.507 216.556 203.288 216.224C203.069 215.892 202.96 215.515 202.96 215.093C202.96 214.374 203.19 213.804 203.651 213.382C204.112 212.96 204.72 212.749 205.474 212.749C206.224 212.749 206.829 212.96 207.29 213.382C207.755 213.804 207.987 214.374 207.987 215.093ZM207.103 219.071C207.103 218.595 206.95 218.206 206.646 217.905C206.345 217.605 205.95 217.454 205.462 217.454C204.974 217.454 204.581 217.603 204.284 217.9C203.991 218.196 203.845 218.587 203.845 219.071C203.845 219.556 203.987 219.937 204.272 220.214C204.562 220.491 204.962 220.63 205.474 220.63C205.981 220.63 206.38 220.491 206.669 220.214C206.958 219.933 207.103 219.552 207.103 219.071ZM205.474 213.64C205.048 213.64 204.702 213.773 204.437 214.038C204.175 214.3 204.044 214.657 204.044 215.11C204.044 215.544 204.173 215.896 204.431 216.165C204.692 216.431 205.04 216.564 205.474 216.564C205.907 216.564 206.253 216.431 206.511 216.165C206.772 215.896 206.903 215.544 206.903 215.11C206.903 214.677 206.769 214.323 206.499 214.05C206.229 213.776 205.888 213.64 205.474 213.64ZM214.726 215.093C214.726 215.519 214.612 215.898 214.386 216.23C214.163 216.562 213.86 216.821 213.478 217.009C213.923 217.2 214.274 217.48 214.532 217.847C214.794 218.214 214.925 218.63 214.925 219.095C214.925 219.833 214.675 220.421 214.175 220.859C213.679 221.296 213.024 221.515 212.212 221.515C211.392 221.515 210.733 221.296 210.237 220.859C209.745 220.417 209.499 219.829 209.499 219.095C209.499 218.634 209.624 218.218 209.874 217.847C210.128 217.476 210.478 217.194 210.923 217.003C210.544 216.816 210.245 216.556 210.026 216.224C209.808 215.892 209.698 215.515 209.698 215.093C209.698 214.374 209.929 213.804 210.39 213.382C210.851 212.96 211.458 212.749 212.212 212.749C212.962 212.749 213.567 212.96 214.028 213.382C214.493 213.804 214.726 214.374 214.726 215.093ZM213.841 219.071C213.841 218.595 213.688 218.206 213.384 217.905C213.083 217.605 212.688 217.454 212.2 217.454C211.712 217.454 211.319 217.603 211.022 217.9C210.729 218.196 210.583 218.587 210.583 219.071C210.583 219.556 210.726 219.937 211.011 220.214C211.3 220.491 211.7 220.63 212.212 220.63C212.72 220.63 213.118 220.491 213.407 220.214C213.696 219.933 213.841 219.552 213.841 219.071ZM212.212 213.64C211.786 213.64 211.44 213.773 211.175 214.038C210.913 214.3 210.782 214.657 210.782 215.11C210.782 215.544 210.911 215.896 211.169 216.165C211.431 216.431 211.778 216.564 212.212 216.564C212.646 216.564 212.991 216.431 213.249 216.165C213.511 215.896 213.642 215.544 213.642 215.11C213.642 214.677 213.507 214.323 213.237 214.05C212.968 213.776 212.626 213.64 212.212 213.64ZM221.798 213.476L218.265 221.398H217.128L220.649 213.757H216.032V212.866H221.798V213.476Z" fill="#7749C7"/>
</svg>
